<svg width="500" height="500" viewBox="0 0 500 500" fill="none" xmlns="http://www.w3.org/2000/svg">
<path d="M449.899 398.49H416.779V398.74H449.899V398.49Z" fill="#EBEBEB"/>
<path d="M331.219 403.211H322.529V403.461H331.219V403.211Z" fill="#EBEBEB"/>
<path d="M415.78 389.211H396.59V389.461H415.78V389.211Z" fill="#EBEBEB"/>
<path d="M95.6509 390.891H52.4609V391.141H95.6509V390.891Z" fill="#EBEBEB"/>
<path d="M110.891 390.891H104.561V391.141H110.891V390.891Z" fill="#EBEBEB"/>
<path d="M225.151 395.109H131.471V395.359H225.151V395.109Z" fill="#EBEBEB"/>
<path d="M237.001 337.8H43.9109C42.3983 337.797 40.9485 337.195 39.8798 336.124C38.8112 335.053 38.2109 333.603 38.2109 332.09V60.66C38.2241 59.156 38.8301 57.718 39.8974 56.6582C40.9646 55.5985 42.4069 55.0026 43.9109 55H237.001C238.515 55 239.968 55.6016 241.039 56.6724C242.109 57.7433 242.711 59.1956 242.711 60.71V332.09C242.711 333.604 242.109 335.057 241.039 336.128C239.968 337.198 238.515 337.8 237.001 337.8ZM43.9109 55.2C42.4646 55.2026 41.0784 55.7791 40.0566 56.8027C39.0348 57.8264 38.4609 59.2136 38.4609 60.66V332.09C38.4609 333.536 39.0348 334.924 40.0566 335.947C41.0784 336.971 42.4646 337.547 43.9109 337.55H237.001C238.448 337.547 239.835 336.971 240.859 335.948C241.882 334.924 242.458 333.537 242.461 332.09V60.66C242.458 59.2127 241.882 57.8255 240.859 56.8021C239.835 55.7787 238.448 55.2026 237.001 55.2H43.9109Z" fill="#EBEBEB"/>
<path d="M453.31 337.8H260.21C258.696 337.797 257.246 337.195 256.175 336.125C255.105 335.054 254.503 333.604 254.5 332.09V60.66C254.516 59.1551 255.124 57.7171 256.193 56.6576C257.262 55.5981 258.705 55.0025 260.21 55H453.31C454.812 55.0052 456.252 55.6022 457.317 56.6617C458.382 57.7212 458.987 59.1578 459 60.66V332.09C459 333.601 458.401 335.05 457.335 336.121C456.268 337.191 454.821 337.795 453.31 337.8ZM260.21 55.2C258.763 55.2026 257.375 55.7787 256.352 56.8021C255.329 57.8255 254.753 59.2127 254.75 60.66V332.09C254.753 333.537 255.329 334.924 256.352 335.948C257.375 336.971 258.763 337.547 260.21 337.55H453.31C454.757 337.547 456.145 336.971 457.168 335.948C458.191 334.924 458.767 333.537 458.77 332.09V60.66C458.767 59.2127 458.191 57.8255 457.168 56.8021C456.145 55.7787 454.757 55.2026 453.31 55.2H260.21Z" fill="#EBEBEB"/>
<path d="M500 382.4H0V382.65H500V382.4Z" fill="#EBEBEB"/>
<path d="M416.749 264.42H266.449L267.489 254.23H417.789L416.749 264.42Z" fill="#FAFAFA"/>
<path d="M392.131 264.42H251.561L252.601 254.23H393.171L392.131 264.42Z" fill="#F0F0F0"/>
<path d="M418.43 268.19H250.76L252.59 250.26H420.25L418.43 268.19ZM251.72 266.13H417.89L419.29 252.32H253.13L251.72 266.13Z" fill="#E6E6E6"/>
<path d="M257.15 263.42H252.91L253.77 255.23H258.01L257.15 263.42Z" fill="#E6E6E6"/>
<path d="M262.31 263.42H258.07L258.93 255.23H263.17L262.31 263.42Z" fill="#E6E6E6"/>
<path d="M267.47 263.42H263.23L264.09 255.23H268.33L267.47 263.42Z" fill="#E6E6E6"/>
<path d="M272.631 263.42H268.391L269.251 255.23H273.491L272.631 263.42Z" fill="#E6E6E6"/>
<path d="M277.791 263.42H273.551L274.411 255.23H278.651L277.791 263.42Z" fill="#E6E6E6"/>
<path d="M282.951 263.42H278.711L279.571 255.23H283.811L282.951 263.42Z" fill="#E6E6E6"/>
<path d="M288.109 263.42H283.869L284.729 255.23H288.969L288.109 263.42Z" fill="#E6E6E6"/>
<path d="M293.269 263.42H289.029L289.889 255.23H294.129L293.269 263.42Z" fill="#E6E6E6"/>
<path d="M298.429 263.42H294.189L295.049 255.23H299.289L298.429 263.42Z" fill="#E6E6E6"/>
<path d="M303.59 263.42H299.35L300.21 255.23H304.44L303.59 263.42Z" fill="#E6E6E6"/>
<path d="M308.75 263.42H304.51L305.37 255.23H309.61L308.75 263.42Z" fill="#E6E6E6"/>
<path d="M313.9 263.42H309.67L310.53 255.23H314.76L313.9 263.42Z" fill="#E6E6E6"/>
<path d="M319.06 263.42H314.83L315.69 255.23H319.92L319.06 263.42Z" fill="#E6E6E6"/>
<path d="M324.22 263.42H319.99L320.85 255.23H325.08L324.22 263.42Z" fill="#E6E6E6"/>
<path d="M329.38 263.42H325.15L326.01 255.23H330.24L329.38 263.42Z" fill="#E6E6E6"/>
<path d="M334.541 263.42H330.311L331.171 255.23H335.401L334.541 263.42Z" fill="#E6E6E6"/>
<path d="M339.701 263.42H335.471L336.331 255.23H340.561L339.701 263.42Z" fill="#E6E6E6"/>
<path d="M344.861 263.42H340.631L341.491 255.23H345.721L344.861 263.42Z" fill="#E6E6E6"/>
<path d="M350.019 263.42H345.789L346.639 255.23H350.879L350.019 263.42Z" fill="#E6E6E6"/>
<path d="M355.179 263.42H350.949L351.809 255.23H356.039L355.179 263.42Z" fill="#E6E6E6"/>
<path d="M360.339 263.42H356.109L356.959 255.23H361.199L360.339 263.42Z" fill="#E6E6E6"/>
<path d="M365.5 263.42H361.26L362.12 255.23H366.36L365.5 263.42Z" fill="#E6E6E6"/>
<path d="M370.66 263.42H366.43L367.28 255.23H371.52L370.66 263.42Z" fill="#E6E6E6"/>
<path d="M375.82 263.42H371.58L372.44 255.23H376.68L375.82 263.42Z" fill="#E6E6E6"/>
<path d="M380.98 263.42H376.74L377.6 255.23H381.84L380.98 263.42Z" fill="#E6E6E6"/>
<path d="M386.14 263.42H381.9L382.76 255.23H387L386.14 263.42Z" fill="#E6E6E6"/>
<path d="M391.301 263.42H387.061L387.921 255.23H392.161L391.301 263.42Z" fill="#E6E6E6"/>
<path d="M439.031 267.861H422.721L424.141 251.551H428.801L428.681 252.941H425.411L424.231 266.471H437.761L438.951 252.941H435.611L435.731 251.551H440.451L439.031 267.861Z" fill="#E6E6E6"/>
<path d="M432.281 259.699H430.891L432.261 244.109H433.641L432.281 259.699Z" fill="#E6E6E6"/>
<path d="M436.951 247.47L432.861 244.91L428.161 247.23L427.631 246L433.041 243.32L437.761 246.28L436.951 247.47Z" fill="#E6E6E6"/>
<path d="M429.73 218.969H279.43L280.46 208.779H430.76L429.73 218.969Z" fill="#FAFAFA"/>
<path d="M415.579 218.969H264.529L265.569 208.779H416.619L415.579 218.969Z" fill="#F0F0F0"/>
<path d="M431.4 222.74H263.73L265.56 204.82H433.22L431.4 222.74ZM264.69 220.68H430.86L432.26 206.88H266.1L264.69 220.68Z" fill="#E6E6E6"/>
<path d="M270.121 217.969H265.891L266.741 209.779H270.981L270.121 217.969Z" fill="#E6E6E6"/>
<path d="M275.281 217.969H271.051L271.901 209.779H276.141L275.281 217.969Z" fill="#E6E6E6"/>
<path d="M280.439 217.969H276.199L277.059 209.779H281.299L280.439 217.969Z" fill="#E6E6E6"/>
<path d="M285.599 217.969H281.359L282.219 209.779H286.459L285.599 217.969Z" fill="#E6E6E6"/>
<path d="M290.76 217.969H286.52L287.38 209.779H291.62L290.76 217.969Z" fill="#E6E6E6"/>
<path d="M295.92 217.969H291.68L292.54 209.779H296.78L295.92 217.969Z" fill="#E6E6E6"/>
<path d="M301.08 217.969H296.84L297.7 209.779H301.94L301.08 217.969Z" fill="#E6E6E6"/>
<path d="M306.24 217.969H302L302.86 209.779H307.1L306.24 217.969Z" fill="#E6E6E6"/>
<path d="M311.4 217.969H307.16L308.02 209.779H312.26L311.4 217.969Z" fill="#E6E6E6"/>
<path d="M316.56 217.969H312.32L313.18 209.779H317.42L316.56 217.969Z" fill="#E6E6E6"/>
<path d="M321.72 217.969H317.48L318.34 209.779H322.58L321.72 217.969Z" fill="#E6E6E6"/>
<path d="M326.881 217.969H322.641L323.501 209.779H327.741L326.881 217.969Z" fill="#E6E6E6"/>
<path d="M332.041 217.969H327.801L328.661 209.779H332.901L332.041 217.969Z" fill="#E6E6E6"/>
<path d="M337.201 217.969H332.961L333.821 209.779H338.061L337.201 217.969Z" fill="#E6E6E6"/>
<path d="M342.359 217.969H338.119L338.979 209.779H343.209L342.359 217.969Z" fill="#E6E6E6"/>
<path d="M347.509 217.969H343.279L344.139 209.779H348.369L347.509 217.969Z" fill="#E6E6E6"/>
<path d="M352.679 217.969H348.439L349.299 209.779H353.529L352.679 217.969Z" fill="#E6E6E6"/>
<path d="M357.83 217.969H353.6L354.46 209.779H358.69L357.83 217.969Z" fill="#E6E6E6"/>
<path d="M362.99 217.969H358.76L359.62 209.779H363.85L362.99 217.969Z" fill="#E6E6E6"/>
<path d="M368.15 217.969H363.92L364.78 209.779H369.01L368.15 217.969Z" fill="#E6E6E6"/>
<path d="M373.31 217.969H369.08L369.94 209.779H374.17L373.31 217.969Z" fill="#E6E6E6"/>
<path d="M378.47 217.969H374.24L375.1 209.779H379.33L378.47 217.969Z" fill="#E6E6E6"/>
<path d="M383.63 217.969H379.4L380.25 209.779H384.49L383.63 217.969Z" fill="#E6E6E6"/>
<path d="M388.791 217.969H384.561L385.421 209.779H389.651L388.791 217.969Z" fill="#E6E6E6"/>
<path d="M393.951 217.969H389.721L390.571 209.779H394.811L393.951 217.969Z" fill="#E6E6E6"/>
<path d="M399.111 217.969H394.881L395.731 209.779H399.971L399.111 217.969Z" fill="#E6E6E6"/>
<path d="M404.269 217.969H400.039L400.889 209.779H405.129L404.269 217.969Z" fill="#E6E6E6"/>
<path d="M409.429 217.969H405.189L406.049 209.779H410.289L409.429 217.969Z" fill="#E6E6E6"/>
<path d="M414.59 217.969H410.35L411.21 209.779H415.45L414.59 217.969Z" fill="#E6E6E6"/>
<path d="M451.919 222.499H435.609L437.029 206.189H441.689L441.559 207.579H438.299L437.109 221.119H450.649L451.839 207.579H448.489L448.619 206.189H453.339L451.919 222.499Z" fill="#E6E6E6"/>
<path d="M445.191 214.35H443.801L445.171 198.76H446.551L445.191 214.35Z" fill="#E6E6E6"/>
<path d="M444.45 215.14L439.5 212.46L440.25 211.23L444.54 213.56L449.08 210.99L449.69 212.18L444.45 215.14Z" fill="#E6E6E6"/>
<path d="M69.7001 183.949L69.5801 185.319H192.3L192.42 183.949H69.7001Z" fill="#F0F0F0"/>
<path opacity="0.2" d="M192.42 183.949H69.7001L69.5801 185.319H192.3L192.42 183.949Z" fill="#F0F0F0"/>
<path d="M193.791 168.34H71.2207L78.6307 83.6797H201.201L193.791 168.34Z" fill="#EBEBEB"/>
<path d="M74.5806 201.719C73.7763 201.734 72.978 201.577 72.2391 201.259C71.5002 200.941 70.8375 200.469 70.2953 199.875C69.7531 199.281 69.3438 198.578 69.0946 197.813C68.8455 197.048 68.7623 196.239 68.8506 195.439C69.0261 193.739 69.8175 192.162 71.0757 191.005C72.3338 189.848 73.9717 189.192 75.6806 189.159C76.4849 189.144 77.2831 189.301 78.022 189.619C78.761 189.937 79.4237 190.409 79.9659 191.003C80.5081 191.598 80.9174 192.301 81.1665 193.065C81.4156 193.83 81.4988 194.64 81.4106 195.439C81.2351 197.139 80.4436 198.716 79.1855 199.873C77.9273 201.03 76.2894 201.687 74.5806 201.719Z" fill="#E0E0E0"/>
<path d="M131.591 178.75H70.3105L70.7805 173.34H132.071L131.591 178.75Z" fill="#EBEBEB"/>
<path d="M191.1 198.15H167.43L167.9 192.73H191.58L191.1 198.15Z" fill="#E0E0E0"/>
<path d="M192.881 178.75H187.471L187.941 173.34H193.351L192.881 178.75Z" fill="#EBEBEB"/>
<path d="M183.709 178.75H178.289L178.769 173.34H184.179L183.709 178.75Z" fill="#EBEBEB"/>
<path d="M174.529 178.75H169.119L169.599 173.34H175.009L174.529 178.75Z" fill="#EBEBEB"/>
<path opacity="0.5" d="M201.651 78.4706H109.721L110.131 73.8105H202.061L201.651 78.4706Z" fill="#F0F0F0"/>
<path d="M102.459 78.8494H78.7793L79.2593 73.4395H102.939L102.459 78.8494Z" fill="#EBEBEB"/>
<path d="M130.039 106.57L151.809 123.78L127.029 140.99L130.039 106.57Z" fill="white"/>
<path d="M184.609 162.199L86.1094 163.829L86.3294 161.289H189.169L184.609 162.199Z" fill="#E0E0E0"/>
<path d="M179.27 163.829H75.9199L76.1399 161.289H179.49L179.27 163.829Z" fill="white"/>
<path d="M190.281 164.771H75.5605L76.0005 160.301H190.671L190.281 164.771ZM76.1206 164.261H189.811L190.111 160.821H76.4205L76.1206 164.261Z" fill="#E0E0E0"/>
<path d="M249.999 437.56C357.082 437.56 443.889 432.492 443.889 426.24C443.889 419.988 357.082 414.92 249.999 414.92C142.917 414.92 56.1094 419.988 56.1094 426.24C56.1094 432.492 142.917 437.56 249.999 437.56Z" fill="#F5F5F5"/>
<path d="M403.58 389.921C403.58 389.921 396.58 374.591 404.58 359.471C412.58 344.351 414.93 340.801 409.82 337.711C404.71 334.621 402.35 349.801 402.35 349.801C402.35 349.801 398.04 339.351 401.6 328.421C405.16 317.491 407.39 299.681 402.53 297.771C397.67 295.861 401.6 319.981 397.38 328.201C395.231 322.429 393.843 316.401 393.25 310.271C392.67 301.491 393.58 287.461 389.74 283.871C385.9 280.281 383.44 282.761 387.21 302.141C389.495 313.718 390.763 325.473 391 337.271C391 337.271 382.66 311.851 377.07 311.111C371.48 310.371 371.48 318.601 376.27 325.741C381.06 332.881 390.27 345.671 391.81 352.251C391.81 352.251 382.66 333.121 374.43 338.991C366.2 344.861 381.59 356.401 388.43 360.581C395.27 364.761 400 390.931 400 390.931L403.58 389.921Z" fill="#0C4767"/>
<path opacity="0.2" d="M403.58 389.921C403.58 389.921 396.58 374.591 404.58 359.471C412.58 344.351 414.93 340.801 409.82 337.711C404.71 334.621 402.35 349.801 402.35 349.801C402.35 349.801 398.04 339.351 401.6 328.421C405.16 317.491 407.39 299.681 402.53 297.771C397.67 295.861 401.6 319.981 397.38 328.201C395.231 322.429 393.843 316.401 393.25 310.271C392.67 301.491 393.58 287.461 389.74 283.871C385.9 280.281 383.44 282.761 387.21 302.141C389.495 313.718 390.763 325.473 391 337.271C391 337.271 382.66 311.851 377.07 311.111C371.48 310.371 371.48 318.601 376.27 325.741C381.06 332.881 390.27 345.671 391.81 352.251C391.81 352.251 382.66 333.121 374.43 338.991C366.2 344.861 381.59 356.401 388.43 360.581C395.27 364.761 400 390.931 400 390.931L403.58 389.921Z" fill="black"/>
<path d="M397.999 396.2C397.999 396.2 404.839 380.77 396.629 365.78C388.419 350.79 386.059 347.26 391.139 344.09C396.219 340.92 398.749 356.09 398.749 356.09C398.749 356.09 402.929 345.58 399.239 334.7C395.549 323.82 393.129 306 397.999 304C402.869 302 399.199 326.2 403.519 334.36C405.599 328.555 406.913 322.504 407.429 316.36C407.909 307.57 406.829 293.56 410.629 289.91C414.429 286.26 416.909 288.7 413.369 308.14C411.221 319.763 410.093 331.551 409.999 343.37C409.999 343.37 417.999 317.83 423.609 317.01C429.219 316.19 429.289 324.41 424.609 331.62C419.929 338.83 410.819 351.76 409.389 358.37C409.389 358.37 418.309 339.1 426.609 344.84C434.909 350.58 419.609 362.37 412.839 366.64C406.069 370.91 401.579 397.16 401.579 397.16L397.999 396.2Z" fill="#0C4767"/>
<path d="M429.59 385.201H373.07L377.64 425.641H425.01L429.59 385.201Z" fill="#263238"/>
<path d="M279.201 192.74L288.421 168.76H287.001L277.141 192.74H279.201Z" fill="#263238"/>
<path d="M282.71 192.869L294.23 175.609L293.11 175.359L281.08 192.499L282.71 192.869Z" fill="#263238"/>
<path d="M239.011 192.679L229.801 168.699H231.221L241.081 192.679H239.011Z" fill="#263238"/>
<path d="M235.51 192.809L223.99 175.549L225.11 175.299L237.13 192.439L235.51 192.809Z" fill="#263238"/>
<path d="M260.891 190.061H258.871L259.411 162.811H260.351L260.891 190.061Z" fill="#263238"/>
<path d="M239.391 192.68L239.861 193.75H241.231L240.791 192.68H239.391Z" fill="#263238"/>
<path d="M278.852 192.68L278.382 193.75H277.012L277.442 192.68H278.852Z" fill="#263238"/>
<path d="M235.881 192.739L236.531 193.959H237.881L236.721 192.529L235.881 192.739Z" fill="#263238"/>
<path d="M282.371 192.739L281.731 193.959H280.381L281.541 192.529L282.371 192.739Z" fill="#263238"/>
<path d="M259.15 190.061L259.16 192.241H260.6V190.061H259.15Z" fill="#263238"/>
<path d="M242.712 200.02H237.012V203.57H242.712V200.02Z" fill="#263238"/>
<path d="M281.37 200.02H275.67V203.57H281.37V200.02Z" fill="#263238"/>
<path d="M283.37 201.591L271 202.931C263.143 203.791 255.217 203.791 247.36 202.931L235 201.591V193.911L245 192.601C254.391 191.381 263.899 191.381 273.29 192.601L283.35 193.911L283.37 201.591Z" fill="#0C4767"/>
<path d="M242.151 197.999C242.151 198.455 242.016 198.9 241.762 199.278C241.509 199.657 241.149 199.951 240.729 200.125C240.308 200.299 239.845 200.344 239.398 200.254C238.952 200.165 238.542 199.945 238.221 199.622C237.9 199.299 237.681 198.889 237.594 198.442C237.506 197.995 237.553 197.532 237.729 197.112C237.904 196.692 238.201 196.334 238.58 196.082C238.96 195.83 239.405 195.697 239.861 195.699C240.163 195.698 240.462 195.757 240.741 195.872C241.02 195.987 241.274 196.157 241.487 196.371C241.7 196.585 241.868 196.839 241.982 197.118C242.096 197.398 242.153 197.697 242.151 197.999Z" fill="white"/>
<path d="M239.86 199.359C240.617 199.359 241.23 198.746 241.23 197.989C241.23 197.233 240.617 196.619 239.86 196.619C239.104 196.619 238.49 197.233 238.49 197.989C238.49 198.746 239.104 199.359 239.86 199.359Z" fill="#0C4767"/>
<path d="M252.85 198C252.848 198.191 252.77 198.375 252.633 198.509C252.496 198.644 252.312 198.72 252.12 198.72C251.929 198.72 251.746 198.644 251.611 198.509C251.476 198.374 251.4 198.19 251.4 198C251.4 197.808 251.476 197.623 251.611 197.487C251.745 197.35 251.929 197.272 252.12 197.27C252.314 197.27 252.5 197.346 252.637 197.483C252.773 197.62 252.85 197.806 252.85 198Z" fill="white"/>
<path d="M255.43 198C255.43 198.19 255.354 198.374 255.219 198.509C255.084 198.644 254.901 198.72 254.71 198.72C254.522 198.714 254.342 198.637 254.21 198.502C254.078 198.368 254.003 198.188 254 198C254 197.806 254.077 197.62 254.214 197.483C254.351 197.346 254.536 197.27 254.73 197.27C254.918 197.277 255.096 197.358 255.227 197.494C255.357 197.63 255.43 197.811 255.43 198Z" fill="white"/>
<path d="M258.001 198C257.998 198.191 257.92 198.375 257.783 198.509C257.647 198.644 257.463 198.72 257.271 198.72C257.176 198.72 257.083 198.701 256.995 198.665C256.908 198.629 256.829 198.575 256.762 198.509C256.695 198.442 256.642 198.362 256.606 198.275C256.569 198.188 256.551 198.094 256.551 198C256.551 197.808 256.626 197.623 256.761 197.487C256.896 197.35 257.079 197.272 257.271 197.27C257.464 197.27 257.65 197.346 257.787 197.483C257.924 197.62 258.001 197.806 258.001 198Z" fill="white"/>
<path d="M260.6 198C260.6 198.094 260.582 198.188 260.546 198.275C260.509 198.362 260.456 198.442 260.39 198.509C260.323 198.575 260.243 198.629 260.156 198.665C260.069 198.701 259.975 198.72 259.88 198.72C259.689 198.72 259.504 198.644 259.368 198.509C259.231 198.375 259.153 198.191 259.15 198C259.15 197.806 259.227 197.62 259.364 197.483C259.501 197.346 259.687 197.27 259.88 197.27C260.072 197.272 260.255 197.35 260.39 197.487C260.525 197.623 260.6 197.808 260.6 198Z" fill="white"/>
<path d="M263.19 198C263.19 198.144 263.148 198.285 263.067 198.405C262.987 198.525 262.873 198.619 262.74 198.674C262.606 198.729 262.46 198.744 262.318 198.715C262.176 198.687 262.046 198.618 261.944 198.516C261.842 198.414 261.773 198.284 261.744 198.142C261.716 198 261.731 197.854 261.786 197.72C261.841 197.587 261.935 197.473 262.055 197.393C262.175 197.312 262.316 197.27 262.46 197.27C262.654 197.27 262.84 197.346 262.977 197.483C263.114 197.62 263.19 197.806 263.19 198Z" fill="white"/>
<path d="M265.78 198C265.78 198.193 265.703 198.379 265.566 198.516C265.43 198.653 265.244 198.73 265.05 198.73C264.857 198.73 264.671 198.653 264.534 198.516C264.397 198.379 264.32 198.193 264.32 198C264.32 197.904 264.339 197.809 264.376 197.72C264.413 197.632 264.466 197.551 264.534 197.483C264.602 197.416 264.682 197.362 264.771 197.325C264.86 197.288 264.954 197.27 265.05 197.27C265.146 197.27 265.241 197.288 265.33 197.325C265.418 197.362 265.499 197.416 265.566 197.483C265.634 197.551 265.688 197.632 265.725 197.72C265.761 197.809 265.78 197.904 265.78 198Z" fill="white"/>
<path d="M268.36 198C268.36 198.19 268.284 198.374 268.149 198.509C268.014 198.644 267.831 198.72 267.64 198.72C267.448 198.72 267.264 198.644 267.127 198.509C266.991 198.375 266.913 198.191 266.91 198C266.91 197.806 266.987 197.62 267.124 197.483C267.261 197.346 267.447 197.27 267.64 197.27C267.832 197.272 268.015 197.35 268.15 197.487C268.285 197.623 268.36 197.808 268.36 198Z" fill="white"/>
<path d="M197.25 277.001H219.2L218.69 274.621C216.35 268.311 204.35 268.311 204.35 268.311C201.35 268.481 198.46 271.311 197.64 275.161L197.25 277.001Z" fill="#0C4767"/>
<path d="M180.191 250.369H160.191L162.821 273.429H184.881L180.191 250.369Z" fill="#263238"/>
<path d="M188.741 276.359H187.741V276.619H150.281V273.429H184.851L180.191 250.369H160.191L159.081 240.589C159.112 239.946 159.389 239.34 159.854 238.895C160.319 238.45 160.938 238.201 161.581 238.199H178.741C179.388 238.198 180.01 238.446 180.479 238.891C180.948 239.336 181.228 239.944 181.261 240.589L188.741 276.359Z" fill="#263238"/>
<path d="M184.85 273.429H162.79L160.37 252.189L160.16 250.369H180.19L184.85 273.429Z" fill="#0C4767"/>
<path opacity="0.1" d="M161.09 258.049L160.16 250.369H183.28L184.89 258.049H161.09Z" fill="black"/>
<path d="M127.001 274.111H124.381C124.318 274.113 124.255 274.103 124.196 274.082C124.136 274.06 124.082 274.027 124.035 273.984C123.989 273.942 123.951 273.89 123.925 273.833C123.898 273.776 123.883 273.714 123.881 273.651V271.121C123.883 271.058 123.898 270.996 123.925 270.938C123.951 270.881 123.989 270.83 124.035 270.787C124.082 270.744 124.136 270.711 124.196 270.689C124.255 270.668 124.318 270.658 124.381 270.661H126.261C126.367 270.659 126.47 270.691 126.556 270.753C126.642 270.814 126.707 270.9 126.741 271.001L127.481 273.531C127.496 273.601 127.495 273.675 127.478 273.745C127.46 273.815 127.427 273.881 127.381 273.937C127.335 273.993 127.277 274.037 127.211 274.067C127.145 274.097 127.073 274.112 127.001 274.111Z" fill="#263238"/>
<path d="M130.6 274.111H128C127.937 274.113 127.874 274.103 127.815 274.082C127.755 274.06 127.701 274.027 127.655 273.984C127.608 273.942 127.571 273.89 127.544 273.833C127.518 273.776 127.503 273.714 127.5 273.651V271.121C127.503 271.058 127.518 270.996 127.544 270.938C127.571 270.881 127.608 270.83 127.655 270.787C127.701 270.744 127.755 270.711 127.815 270.689C127.874 270.668 127.937 270.658 128 270.661H129.88C129.986 270.659 130.089 270.691 130.175 270.753C130.262 270.814 130.326 270.9 130.36 271.001L131.1 273.531C131.116 273.603 131.114 273.678 131.096 273.75C131.078 273.822 131.043 273.889 130.994 273.945C130.946 274.001 130.885 274.045 130.817 274.074C130.748 274.103 130.674 274.115 130.6 274.111Z" fill="#263238"/>
<path d="M134.222 274.111H131.602C131.539 274.113 131.476 274.103 131.416 274.082C131.357 274.06 131.303 274.027 131.256 273.984C131.21 273.942 131.172 273.89 131.146 273.833C131.119 273.776 131.104 273.714 131.102 273.651V271.121C131.104 271.058 131.119 270.996 131.146 270.938C131.172 270.881 131.21 270.83 131.256 270.787C131.303 270.744 131.357 270.711 131.416 270.689C131.476 270.668 131.539 270.658 131.602 270.661H133.482C133.587 270.659 133.691 270.691 133.777 270.753C133.863 270.814 133.928 270.9 133.962 271.001L134.702 273.531C134.717 273.601 134.716 273.675 134.698 273.745C134.681 273.815 134.648 273.881 134.602 273.937C134.556 273.993 134.498 274.037 134.432 274.067C134.366 274.097 134.294 274.112 134.222 274.111Z" fill="#263238"/>
<path d="M137.841 274.111H135.221C135.158 274.113 135.095 274.103 135.035 274.082C134.976 274.06 134.922 274.027 134.875 273.984C134.829 273.942 134.791 273.89 134.765 273.833C134.738 273.776 134.723 273.714 134.721 273.651V271.121C134.723 271.058 134.738 270.996 134.765 270.938C134.791 270.881 134.829 270.83 134.875 270.787C134.922 270.744 134.976 270.711 135.035 270.689C135.095 270.668 135.158 270.658 135.221 270.661H137.101C137.206 270.659 137.31 270.691 137.396 270.753C137.482 270.814 137.547 270.9 137.581 271.001L138.321 273.531C138.336 273.601 138.335 273.675 138.317 273.745C138.3 273.815 138.267 273.881 138.221 273.937C138.175 273.993 138.117 274.037 138.051 274.067C137.985 274.097 137.913 274.112 137.841 274.111Z" fill="#263238"/>
<path d="M141.452 274.111H138.842C138.779 274.113 138.716 274.103 138.657 274.082C138.597 274.06 138.543 274.027 138.496 273.984C138.45 273.942 138.412 273.89 138.386 273.833C138.359 273.776 138.344 273.714 138.342 273.651V271.121C138.344 271.058 138.359 270.996 138.386 270.938C138.412 270.881 138.45 270.83 138.496 270.787C138.543 270.744 138.597 270.711 138.657 270.689C138.716 270.668 138.779 270.658 138.842 270.661H140.722C140.827 270.659 140.931 270.691 141.017 270.753C141.103 270.814 141.168 270.9 141.202 271.001L141.942 273.531C141.957 273.602 141.956 273.677 141.938 273.748C141.92 273.819 141.886 273.885 141.839 273.941C141.792 273.997 141.732 274.041 141.665 274.071C141.598 274.1 141.525 274.114 141.452 274.111Z" fill="#263238"/>
<path d="M145.071 274.111H142.461C142.398 274.113 142.335 274.103 142.276 274.082C142.216 274.06 142.162 274.027 142.116 273.984C142.069 273.942 142.032 273.89 142.005 273.833C141.978 273.776 141.964 273.714 141.961 273.651V271.121C141.964 271.058 141.978 270.996 142.005 270.938C142.032 270.881 142.069 270.83 142.116 270.787C142.162 270.744 142.216 270.711 142.276 270.689C142.335 270.668 142.398 270.658 142.461 270.661H144.341C144.447 270.659 144.55 270.691 144.636 270.753C144.722 270.814 144.787 270.9 144.821 271.001L145.561 273.531C145.576 273.602 145.575 273.677 145.557 273.748C145.539 273.819 145.506 273.885 145.458 273.941C145.411 273.997 145.351 274.041 145.284 274.071C145.217 274.1 145.144 274.114 145.071 274.111Z" fill="#263238"/>
<path d="M148.69 274.11H146.07C145.944 274.113 145.821 274.067 145.728 273.981C145.634 273.895 145.578 273.777 145.57 273.65V271.12C145.578 270.994 145.634 270.875 145.728 270.79C145.821 270.704 145.944 270.657 146.07 270.66H148C148.106 270.659 148.209 270.691 148.296 270.752C148.382 270.813 148.446 270.9 148.48 271L149.22 273.53C149.237 273.606 149.235 273.684 149.215 273.758C149.196 273.833 149.158 273.901 149.106 273.958C149.054 274.015 148.989 274.058 148.917 274.085C148.844 274.111 148.767 274.12 148.69 274.11Z" fill="#263238"/>
<path d="M152.311 274.11H149.691C149.565 274.113 149.442 274.067 149.349 273.981C149.256 273.895 149.199 273.777 149.191 273.65V271.12C149.199 270.994 149.256 270.875 149.349 270.79C149.442 270.704 149.565 270.657 149.691 270.66H151.581C151.687 270.659 151.79 270.691 151.877 270.752C151.963 270.813 152.028 270.9 152.061 271L152.801 273.53C152.817 273.602 152.815 273.676 152.798 273.747C152.78 273.818 152.746 273.884 152.699 273.94C152.651 273.996 152.592 274.041 152.525 274.07C152.458 274.1 152.385 274.113 152.311 274.11Z" fill="#263238"/>
<path d="M155.931 274.11H153.311C153.184 274.113 153.061 274.067 152.968 273.981C152.875 273.895 152.818 273.777 152.811 273.65V271.12C152.818 270.994 152.875 270.875 152.968 270.79C153.061 270.704 153.184 270.658 153.311 270.66H155.191C155.298 270.657 155.404 270.688 155.492 270.749C155.58 270.811 155.646 270.899 155.681 271L156.421 273.53C156.436 273.602 156.435 273.676 156.417 273.747C156.399 273.819 156.365 273.885 156.318 273.941C156.271 273.997 156.211 274.041 156.144 274.07C156.077 274.1 156.004 274.114 155.931 274.11Z" fill="#263238"/>
<path d="M159.552 274.11H156.932C156.805 274.113 156.682 274.067 156.589 273.981C156.496 273.895 156.439 273.777 156.432 273.65V271.12C156.439 270.994 156.496 270.875 156.589 270.79C156.682 270.704 156.805 270.658 156.932 270.66H158.812C158.919 270.657 159.025 270.688 159.113 270.749C159.201 270.811 159.267 270.899 159.302 271L160.042 273.53C160.057 273.602 160.056 273.676 160.038 273.747C160.02 273.819 159.986 273.885 159.939 273.941C159.892 273.997 159.832 274.041 159.765 274.07C159.698 274.1 159.625 274.114 159.552 274.11Z" fill="#263238"/>
<path d="M163.171 274.11H160.551C160.424 274.113 160.301 274.067 160.208 273.981C160.115 273.895 160.059 273.777 160.051 273.65V271.12C160.059 270.994 160.115 270.875 160.208 270.79C160.301 270.704 160.424 270.658 160.551 270.66H162.431C162.538 270.657 162.644 270.688 162.732 270.749C162.82 270.811 162.886 270.899 162.921 271L163.661 273.53C163.676 273.602 163.675 273.676 163.657 273.747C163.639 273.819 163.605 273.885 163.558 273.941C163.511 273.997 163.451 274.041 163.384 274.07C163.317 274.1 163.244 274.114 163.171 274.11Z" fill="#263238"/>
<path d="M166.79 274.11H164.17C164.043 274.113 163.92 274.067 163.827 273.981C163.734 273.895 163.678 273.777 163.67 273.65V271.12C163.678 270.994 163.734 270.875 163.827 270.79C163.92 270.704 164.043 270.658 164.17 270.66H166.05C166.157 270.657 166.263 270.688 166.351 270.749C166.439 270.811 166.506 270.899 166.54 271L167.28 273.53C167.295 273.602 167.294 273.676 167.276 273.747C167.258 273.819 167.225 273.885 167.177 273.941C167.13 273.997 167.07 274.041 167.003 274.07C166.936 274.1 166.863 274.114 166.79 274.11Z" fill="#263238"/>
<path d="M170.411 274.11H167.791C167.664 274.113 167.542 274.067 167.448 273.981C167.355 273.895 167.299 273.777 167.291 273.65V271.12C167.299 270.994 167.355 270.875 167.448 270.79C167.542 270.704 167.664 270.658 167.791 270.66H169.671C169.778 270.657 169.884 270.688 169.972 270.749C170.061 270.811 170.127 270.899 170.161 271L170.901 273.53C170.916 273.602 170.915 273.676 170.897 273.747C170.879 273.819 170.846 273.885 170.798 273.941C170.751 273.997 170.692 274.041 170.624 274.07C170.557 274.1 170.484 274.114 170.411 274.11Z" fill="#263238"/>
<path d="M174.001 274.11H171.381C171.254 274.113 171.131 274.067 171.038 273.981C170.945 273.895 170.889 273.777 170.881 273.65V271.12C170.889 270.994 170.945 270.875 171.038 270.79C171.131 270.704 171.254 270.658 171.381 270.66H173.261C173.368 270.657 173.474 270.688 173.562 270.749C173.65 270.811 173.717 270.899 173.751 271L174.491 273.53C174.506 273.602 174.505 273.676 174.487 273.747C174.469 273.819 174.435 273.885 174.388 273.941C174.341 273.997 174.281 274.041 174.214 274.07C174.147 274.1 174.074 274.114 174.001 274.11Z" fill="#263238"/>
<path d="M177.65 274.11H175C174.873 274.113 174.751 274.067 174.657 273.981C174.564 273.895 174.508 273.777 174.5 273.65V271.12C174.508 270.994 174.564 270.875 174.657 270.79C174.751 270.704 174.873 270.658 175 270.66H176.88C176.987 270.657 177.093 270.688 177.181 270.749C177.269 270.811 177.336 270.899 177.37 271L178.1 273.53C178.117 273.599 178.117 273.67 178.103 273.739C178.088 273.808 178.058 273.873 178.014 273.929C177.971 273.984 177.916 274.03 177.853 274.061C177.79 274.093 177.72 274.109 177.65 274.11Z" fill="#263238"/>
<path d="M180.29 274.381C180.264 274.934 180.021 275.455 179.612 275.83C179.204 276.204 178.664 276.402 178.11 276.381H123.91C123.636 276.393 123.362 276.351 123.104 276.257C122.845 276.162 122.608 276.018 122.406 275.833C122.203 275.647 122.039 275.423 121.923 275.174C121.808 274.925 121.742 274.655 121.73 274.381C121.732 274.114 121.789 273.85 121.899 273.607C122.01 273.364 122.17 273.147 122.37 272.971C122.78 272.602 123.31 272.396 123.86 272.391H178.11C178.313 272.391 178.515 272.418 178.71 272.471C179.15 272.565 179.545 272.805 179.832 273.151C180.119 273.498 180.28 273.931 180.29 274.381Z" fill="#263238"/>
<path opacity="0.2" d="M180.29 274.381C180.264 274.934 180.021 275.455 179.612 275.83C179.204 276.204 178.664 276.402 178.11 276.381H123.91C123.636 276.393 123.362 276.351 123.104 276.257C122.845 276.162 122.608 276.018 122.406 275.833C122.203 275.647 122.039 275.423 121.923 275.174C121.808 274.925 121.742 274.655 121.73 274.381C121.732 274.114 121.789 273.85 121.899 273.607C122.01 273.364 122.17 273.147 122.37 272.971C122.78 272.602 123.31 272.396 123.86 272.391H178.11C178.313 272.391 178.515 272.418 178.71 272.471C179.15 272.565 179.545 272.805 179.832 273.151C180.119 273.498 180.28 273.931 180.29 274.381Z" fill="white"/>
<path d="M180.29 274.38C180.264 274.934 180.021 275.455 179.612 275.829C179.204 276.204 178.664 276.402 178.11 276.38H159.76C159.333 276.275 158.953 276.032 158.678 275.688C158.403 275.345 158.25 274.92 158.24 274.48C158.225 274.361 158.225 274.24 158.24 274.12C158.32 273.712 158.535 273.342 158.85 273.07C158.99 272.943 159.145 272.832 159.31 272.74L159.57 272.62C159.837 272.528 160.118 272.481 160.4 272.48H178.67C179.116 272.566 179.519 272.801 179.813 273.147C180.108 273.492 180.276 273.927 180.29 274.38Z" fill="#263238"/>
<path d="M218.73 185.6H213.19L207 253.15H212.53C213.019 253.111 213.476 252.894 213.815 252.54C214.155 252.186 214.352 251.72 214.37 251.23L220.24 187.52C220.283 187.292 220.277 187.058 220.222 186.833C220.167 186.609 220.065 186.398 219.922 186.216C219.779 186.034 219.598 185.885 219.393 185.779C219.187 185.672 218.961 185.611 218.73 185.6Z" fill="#263238"/>
<path d="M210.161 253.15H127.161C126.933 253.134 126.71 253.07 126.508 252.962C126.306 252.854 126.129 252.704 125.989 252.522C125.849 252.341 125.75 252.132 125.697 251.909C125.643 251.686 125.638 251.455 125.681 251.23L131.551 187.52C131.569 187.03 131.767 186.563 132.106 186.209C132.445 185.856 132.902 185.638 133.391 185.6H216.391C216.62 185.615 216.842 185.679 217.044 185.787C217.246 185.896 217.423 186.045 217.563 186.227C217.703 186.408 217.803 186.617 217.856 186.84C217.909 187.063 217.914 187.295 217.871 187.52L212.001 251.23C211.983 251.72 211.786 252.186 211.446 252.54C211.107 252.894 210.65 253.111 210.161 253.15Z" fill="#0C4767"/>
<path opacity="0.2" d="M210.161 253.15H127.161C126.933 253.134 126.71 253.07 126.508 252.962C126.306 252.854 126.129 252.704 125.989 252.522C125.849 252.341 125.75 252.132 125.697 251.909C125.643 251.686 125.638 251.455 125.681 251.23L131.551 187.52C131.569 187.03 131.767 186.563 132.106 186.209C132.445 185.856 132.902 185.638 133.391 185.6H216.391C216.62 185.615 216.842 185.679 217.044 185.787C217.246 185.896 217.423 186.045 217.563 186.227C217.703 186.408 217.803 186.617 217.856 186.84C217.909 187.063 217.914 187.295 217.871 187.52L212.001 251.23C211.983 251.72 211.786 252.186 211.446 252.54C211.107 252.894 210.65 253.111 210.161 253.15Z" fill="white"/>
<path d="M207.661 239.601H132.271L136.451 191.811H211.841L207.661 239.601Z" fill="#0C4767"/>
<path d="M206.62 243.34H132.33C131.842 243.347 131.357 243.25 130.909 243.056C130.461 242.862 130.059 242.575 129.73 242.214C129.401 241.853 129.152 241.426 129.001 240.962C128.849 240.497 128.798 240.006 128.85 239.52L133 192C133.105 190.967 133.586 190.009 134.351 189.306C135.116 188.604 136.112 188.207 137.15 188.19H211.43C211.919 188.18 212.404 188.275 212.854 188.467C213.303 188.659 213.706 188.945 214.037 189.306C214.367 189.666 214.617 190.093 214.769 190.558C214.921 191.022 214.973 191.514 214.92 192L210.76 239.49C210.664 240.529 210.189 241.496 209.425 242.206C208.662 242.916 207.663 243.32 206.62 243.34Z" fill="#263238"/>
<path d="M207.661 239.601H132.271L136.451 191.811H211.841L207.661 239.601Z" fill="#0C4767"/>
<path opacity="0.4" d="M207.661 239.601H132.271L136.451 191.811H211.841L207.661 239.601Z" fill="white"/>
<path d="M153.61 209.12H144.07L144.9 199.58H147.63L147.55 200.39H145.64L144.95 208.31H152.87L153.56 200.39H151.61L151.68 199.58H154.44L153.61 209.12Z" fill="#0C4767"/>
<path d="M149.671 204.35H148.861L149.661 195.23H150.471L149.671 204.35Z" fill="#0C4767"/>
<path d="M149.242 204.811L146.352 203.251L146.782 202.531L149.292 203.891L151.952 202.391L152.312 203.091L149.242 204.811Z" fill="#0C4767"/>
<path d="M187.491 203.77L186.081 208.77H184.551L185.191 206.51L183.631 208.33H182.901L182.291 206.54L181.651 208.77H180.121L181.551 203.77H182.911L183.761 206.41L186.061 203.77H187.491Z" fill="white"/>
<path d="M191.882 206.581C191.843 207.164 191.592 207.712 191.175 208.121C190.758 208.531 190.205 208.773 189.622 208.801C189.398 208.832 189.17 208.793 188.969 208.689C188.769 208.585 188.605 208.422 188.502 208.221L188.362 208.731H186.842L188.352 203.471H190.002L189.532 205.121C189.812 204.888 190.168 204.767 190.532 204.781C190.743 204.799 190.949 204.862 191.134 204.965C191.32 205.068 191.482 205.209 191.609 205.379C191.736 205.549 191.827 205.744 191.874 205.951C191.921 206.158 191.923 206.372 191.882 206.581ZM190.252 206.661C190.269 206.585 190.268 206.506 190.25 206.43C190.231 206.355 190.195 206.285 190.145 206.225C190.094 206.166 190.031 206.119 189.959 206.089C189.887 206.059 189.809 206.046 189.732 206.051C189.312 206.051 189.002 206.391 188.952 206.931C188.935 207.007 188.935 207.085 188.954 207.161C188.972 207.237 189.008 207.307 189.059 207.366C189.109 207.425 189.173 207.472 189.245 207.502C189.316 207.533 189.394 207.546 189.472 207.541C189.892 207.541 190.202 207.191 190.252 206.661Z" fill="white"/>
<path d="M196.84 206.579C196.804 207.163 196.553 207.713 196.136 208.122C195.719 208.532 195.165 208.773 194.58 208.799C194.377 208.823 194.171 208.791 193.984 208.706C193.797 208.622 193.637 208.488 193.52 208.319L193 210.109H191.4L192.91 204.849H194.42L194.32 205.209C194.612 204.933 194.999 204.779 195.4 204.779C195.62 204.785 195.835 204.839 196.031 204.937C196.228 205.035 196.401 205.174 196.538 205.345C196.675 205.517 196.773 205.716 196.825 205.929C196.877 206.142 196.883 206.364 196.84 206.579ZM195.21 206.659C195.228 206.583 195.227 206.505 195.208 206.429C195.19 206.353 195.154 206.283 195.103 206.224C195.053 206.165 194.989 206.118 194.918 206.088C194.846 206.057 194.768 206.044 194.69 206.049C194.27 206.049 193.96 206.389 193.91 206.929C193.893 207.005 193.894 207.084 193.912 207.16C193.931 207.235 193.967 207.305 194.017 207.365C194.068 207.424 194.132 207.471 194.203 207.501C194.275 207.531 194.353 207.544 194.43 207.539C194.85 207.539 195.16 207.189 195.21 206.659Z" fill="white"/>
<path d="M196.701 208.45L197.351 207.36C197.749 207.59 198.201 207.711 198.661 207.71C199.021 207.71 199.151 207.63 199.161 207.53C199.161 207.19 197.161 207.53 197.311 206.25C197.401 205.25 198.411 204.78 199.621 204.78C200.133 204.77 200.64 204.869 201.111 205.07L200.461 206.17C200.123 205.969 199.734 205.869 199.341 205.88C198.971 205.88 198.841 205.98 198.831 206.07C198.831 206.42 200.781 206.07 200.671 207.35C200.581 208.35 199.561 208.8 198.371 208.8C197.794 208.821 197.221 208.701 196.701 208.45Z" fill="white"/>
<path d="M184.31 227L182.9 232H181.38L182.01 229.74L180.46 231.56H179.72L179.11 229.77L178.47 232H177L178.42 227H179.78L180.63 229.64L182.94 227H184.31Z" fill="white"/>
<path d="M188.7 229.831C188.664 230.413 188.414 230.961 187.999 231.371C187.584 231.78 187.033 232.022 186.45 232.051C186.226 232.082 185.998 232.043 185.798 231.939C185.597 231.835 185.434 231.672 185.33 231.471L185.18 231.981H183.66L185.17 226.721H186.77L186.3 228.371C186.583 228.142 186.937 228.022 187.3 228.031C187.516 228.042 187.727 228.1 187.918 228.2C188.11 228.301 188.278 228.441 188.411 228.611C188.543 228.782 188.638 228.979 188.688 229.19C188.738 229.4 188.742 229.619 188.7 229.831ZM187.07 229.911C187.087 229.835 187.087 229.756 187.068 229.68C187.05 229.605 187.014 229.535 186.963 229.475C186.913 229.416 186.849 229.369 186.777 229.339C186.706 229.309 186.628 229.296 186.55 229.301C186.14 229.301 185.82 229.641 185.77 230.181C185.753 230.257 185.754 230.335 185.772 230.411C185.791 230.487 185.827 230.557 185.877 230.616C185.928 230.675 185.991 230.722 186.063 230.752C186.135 230.783 186.212 230.796 186.29 230.791C186.509 230.775 186.714 230.674 186.86 230.51C187.006 230.345 187.081 230.13 187.07 229.911Z" fill="white"/>
<path d="M193.67 229.829C193.63 230.411 193.377 230.959 192.961 231.368C192.545 231.776 191.993 232.019 191.41 232.049C191.207 232.074 191 232.042 190.813 231.958C190.626 231.873 190.466 231.739 190.35 231.569L189.83 233.359H188.23L189.74 228.099H191.24L191.14 228.459C191.435 228.182 191.825 228.028 192.23 228.029C192.45 228.035 192.665 228.089 192.862 228.187C193.058 228.285 193.231 228.424 193.368 228.595C193.505 228.767 193.603 228.966 193.655 229.179C193.707 229.392 193.713 229.614 193.67 229.829ZM192.04 229.909C192.058 229.833 192.057 229.755 192.039 229.679C192.02 229.603 191.984 229.533 191.933 229.474C191.883 229.415 191.819 229.368 191.748 229.338C191.676 229.307 191.598 229.294 191.52 229.299C191.1 229.299 190.78 229.639 190.74 230.179C190.723 230.255 190.724 230.334 190.742 230.41C190.761 230.485 190.797 230.555 190.847 230.615C190.898 230.674 190.962 230.721 191.033 230.751C191.105 230.781 191.183 230.794 191.26 230.789C191.68 230.789 192 230.439 192 229.909H192.04Z" fill="white"/>
<path d="M193.531 231.7L194.171 230.61C194.573 230.839 195.028 230.96 195.491 230.96C195.841 230.96 195.971 230.88 195.981 230.78C195.981 230.44 193.981 230.78 194.141 229.5C194.221 228.5 195.241 228.03 196.451 228.03C196.963 228.022 197.47 228.121 197.941 228.32L197.291 229.42C196.95 229.218 196.558 229.117 196.161 229.13C195.791 229.13 195.661 229.23 195.651 229.32C195.651 229.67 197.601 229.32 197.491 230.6C197.411 231.6 196.391 232.05 195.201 232.05C194.624 232.072 194.051 231.952 193.531 231.7Z" fill="white"/>
<path d="M160.63 207.54H163.77L163.49 208.95H157.83L158.06 207.83L161.46 205.16C162.31 204.48 162.56 204.09 162.56 203.6C162.56 203.11 162.19 202.78 161.46 202.78C161.154 202.783 160.852 202.855 160.577 202.99C160.302 203.125 160.06 203.32 159.87 203.56L158.71 202.71C159.071 202.266 159.529 201.911 160.049 201.673C160.57 201.435 161.138 201.321 161.71 201.34C163.29 201.34 164.33 202.19 164.33 203.34C164.33 204.23 163.92 204.98 162.61 205.99L160.63 207.54Z" fill="white"/>
<path d="M167.501 202.861L167.101 204.281H167.541C169.411 204.281 170.341 205.051 170.341 206.331C170.341 208.011 168.911 209.081 166.881 209.081C165.893 209.122 164.923 208.814 164.141 208.211L164.971 206.941C165.537 207.395 166.245 207.635 166.971 207.621C167.971 207.621 168.571 207.231 168.571 206.531C168.571 206.001 168.171 205.681 167.121 205.681H165.121L166.341 201.471H170.911L170.621 202.861H167.501Z" fill="white"/>
<path d="M177.222 206.42C177.218 206.798 177.136 207.171 176.979 207.515C176.823 207.859 176.596 208.166 176.313 208.417C176.03 208.667 175.698 208.856 175.338 208.97C174.978 209.084 174.597 209.122 174.222 209.08C173.814 209.109 173.405 209.049 173.023 208.905C172.641 208.76 172.295 208.533 172.009 208.241C171.724 207.949 171.505 207.598 171.369 207.212C171.233 206.827 171.183 206.417 171.222 206.01C171.186 205.401 171.276 204.792 171.487 204.221C171.698 203.649 172.026 203.127 172.448 202.689C172.871 202.25 173.38 201.903 173.944 201.671C174.507 201.439 175.113 201.326 175.722 201.34C176.449 201.318 177.168 201.494 177.802 201.85L177.022 203.12C176.663 202.905 176.258 202.78 175.84 202.754C175.423 202.729 175.005 202.804 174.623 202.974C174.241 203.143 173.905 203.402 173.644 203.729C173.382 204.055 173.203 204.44 173.122 204.85C173.601 204.444 174.215 204.234 174.842 204.26C175.142 204.235 175.444 204.272 175.73 204.369C176.015 204.466 176.277 204.621 176.5 204.823C176.724 205.026 176.903 205.272 177.027 205.547C177.151 205.821 177.217 206.118 177.222 206.42ZM175.522 206.57C175.522 205.93 175.032 205.57 174.332 205.57C174.164 205.552 173.995 205.569 173.834 205.619C173.674 205.67 173.525 205.753 173.398 205.864C173.272 205.975 173.169 206.111 173.097 206.263C173.026 206.416 172.986 206.581 172.982 206.75C172.986 206.902 173.022 207.052 173.088 207.189C173.154 207.327 173.248 207.449 173.364 207.548C173.479 207.647 173.615 207.72 173.761 207.764C173.907 207.807 174.061 207.819 174.212 207.8C174.381 207.815 174.551 207.795 174.712 207.74C174.873 207.685 175.02 207.596 175.144 207.48C175.267 207.363 175.365 207.222 175.43 207.065C175.496 206.908 175.527 206.74 175.522 206.57Z" fill="white"/>
<path d="M158.53 224.35L157.03 231.83H155.3L156.52 225.74H155L155.28 224.35H158.53Z" fill="white"/>
<path d="M165.502 230.26H164.282L163.972 231.83H162.282L162.602 230.26H158.602L158.832 229.1L163.232 224.35H165.122L161.022 228.85H163.022L163.302 227.45H164.912L164.632 228.85H165.862L165.502 230.26Z" fill="white"/>
<path d="M172.871 230.26H171.641L171.331 231.83H169.641L169.961 230.26H165.961L166.191 229.1L170.591 224.35H172.481L168.381 228.85H170.381L170.661 227.45H172.271L172.001 228.85H173.221L172.871 230.26Z" fill="white"/>
<path d="M150.632 231.71H141.092L141.932 222.16H144.652L144.582 222.97H142.672L141.972 230.89H149.892L150.592 222.97H148.632L148.702 222.16H151.472L150.632 231.71Z" fill="#0C4767"/>
<path d="M146.691 226.931H145.871L146.671 217.811H147.481L146.691 226.931Z" fill="#0C4767"/>
<path d="M149.421 219.78L147.021 218.28L144.271 219.64L143.971 218.92L147.131 217.35L149.891 219.08L149.421 219.78Z" fill="#0C4767"/>
<path opacity="0.1" d="M183.39 188.24L168.66 243.31H173.61L188.18 188.24H183.39Z" fill="white"/>
<path opacity="0.1" d="M191.031 188.24L176.311 243.31H186.131L200.691 188.24H191.031Z" fill="white"/>
<path d="M143.381 288.129H150.001L160.671 414.469C160.7 414.803 160.659 415.139 160.551 415.456C160.443 415.773 160.271 416.064 160.044 416.31C159.817 416.557 159.541 416.754 159.234 416.888C158.927 417.022 158.596 417.09 158.261 417.089C157.661 417.089 157.083 416.866 156.639 416.463C156.196 416.06 155.918 415.506 155.861 414.909L143.381 288.129Z" fill="#263238"/>
<path d="M303.49 287.25H310.15L320.82 414.47C320.848 414.803 320.806 415.139 320.698 415.455C320.589 415.772 320.416 416.062 320.19 416.308C319.963 416.555 319.688 416.751 319.382 416.886C319.076 417.02 318.745 417.09 318.41 417.09C317.811 417.088 317.235 416.864 316.791 416.461C316.348 416.059 316.07 415.506 316.01 414.91L303.49 287.25Z" fill="#263238"/>
<path d="M308.171 287.25H109.451V309.66H308.171V287.25Z" fill="#0C4767"/>
<path opacity="0.3" d="M273.26 287.42L272.49 309.64L308.17 309.66V287.25L273.26 287.42Z" fill="black"/>
<path opacity="0.2" d="M270.241 287.42H109.471V309.83H270.241V287.42Z" fill="black"/>
<path d="M113.83 287.25H107.17L107 423.11C106.999 423.428 107.06 423.743 107.182 424.038C107.303 424.332 107.481 424.599 107.706 424.824C107.931 425.049 108.198 425.227 108.492 425.348C108.787 425.47 109.102 425.531 109.42 425.53C110.055 425.53 110.665 425.281 111.117 424.835C111.57 424.39 111.83 423.785 111.84 423.15L113.83 287.25Z" fill="#263238"/>
<path d="M273.94 287.25H267.28L267.08 423.11C267.08 423.752 267.335 424.367 267.789 424.821C268.243 425.275 268.858 425.53 269.5 425.53C270.136 425.533 270.747 425.284 271.2 424.838C271.653 424.393 271.912 423.786 271.92 423.15L273.94 287.25Z" fill="#263238"/>
<path opacity="0.2" d="M107.17 287.25L107 423.11C106.999 423.428 107.06 423.743 107.182 424.038C107.303 424.332 107.481 424.599 107.706 424.824C107.931 425.049 108.198 425.227 108.492 425.348C108.787 425.47 109.102 425.531 109.42 425.53C110.055 425.53 110.665 425.281 111.117 424.835C111.57 424.39 111.83 423.785 111.84 423.15L113.84 287.25H107.17Z" fill="white"/>
<path opacity="0.2" d="M273.94 287.25H267.28L267.08 423.11C267.08 423.752 267.335 424.367 267.789 424.821C268.243 425.275 268.858 425.53 269.5 425.53C270.136 425.533 270.747 425.284 271.2 424.838C271.653 424.393 271.912 423.786 271.92 423.15L273.94 287.25Z" fill="white"/>
<path d="M101.631 281.871C101.631 278.871 102.751 276.401 104.141 276.391H313.141C314.531 276.391 315.651 278.851 315.651 281.871C315.651 284.871 314.531 287.331 313.141 287.341H104.141C102.751 287.331 101.631 284.891 101.631 281.871Z" fill="#263238"/>
<path opacity="0.1" d="M101.631 281.871C101.631 278.871 102.751 276.401 104.141 276.391H313.141C314.531 276.391 315.651 278.851 315.651 281.871C315.651 284.871 314.531 287.331 313.141 287.341H104.141C102.751 287.331 101.631 284.891 101.631 281.871Z" fill="white"/>
<path d="M261.73 281.871C261.73 278.871 262.86 276.401 264.25 276.391H313.18C314.57 276.391 315.69 278.851 315.69 281.871C315.69 284.871 314.57 287.331 313.18 287.341H264.25C262.86 287.331 261.74 284.891 261.73 281.871Z" fill="#263238"/>
<path d="M213.001 267.61C197.061 267.61 190.871 253.11 190.801 252.94L192.051 252.42C192.371 253.2 200.171 271.35 221.721 264.88C243.571 258.31 260.941 211.8 261.111 211.33L262.381 211.8C261.661 213.74 244.601 259.41 222.111 266.17C219.162 267.096 216.092 267.582 213.001 267.61Z" fill="#263238"/>
<path d="M287.061 203.42H255.111V276.95H287.061V203.42Z" fill="#263238"/>
<path opacity="0.3" d="M287.061 203.42H255.111V276.95H287.061V203.42Z" fill="black"/>
<path d="M264.212 203.42H232.262V276.95H264.212V203.42Z" fill="#263238"/>
<path d="M254 219.101C254 220.394 253.616 221.659 252.897 222.735C252.178 223.811 251.156 224.649 249.96 225.144C248.765 225.638 247.449 225.767 246.18 225.514C244.911 225.261 243.746 224.637 242.832 223.721C241.918 222.806 241.296 221.64 241.044 220.37C240.793 219.101 240.924 217.786 241.421 216.591C241.917 215.396 242.757 214.375 243.834 213.658C244.911 212.94 246.176 212.559 247.47 212.561C248.328 212.561 249.178 212.73 249.971 213.059C250.764 213.387 251.484 213.869 252.091 214.477C252.697 215.084 253.178 215.805 253.506 216.599C253.833 217.392 254.001 218.242 254 219.101Z" fill="white"/>
<path d="M251.381 219.15C251.381 219.924 251.151 220.68 250.722 221.323C250.292 221.966 249.681 222.467 248.967 222.763C248.252 223.059 247.466 223.136 246.708 222.985C245.949 222.834 245.253 222.462 244.706 221.915C244.159 221.368 243.787 220.671 243.636 219.913C243.485 219.155 243.562 218.368 243.858 217.654C244.154 216.939 244.655 216.329 245.298 215.899C245.941 215.47 246.697 215.24 247.471 215.24C248.508 215.24 249.502 215.652 250.235 216.385C250.969 217.119 251.381 218.113 251.381 219.15Z" fill="#0C4767"/>
<path d="M250.731 236.709C250.731 237.357 250.539 237.989 250.18 238.527C249.82 239.065 249.309 239.484 248.71 239.731C248.112 239.979 247.454 240.043 246.82 239.916C246.185 239.789 245.603 239.476 245.146 239.018C244.689 238.56 244.378 237.976 244.253 237.341C244.128 236.706 244.194 236.048 244.443 235.451C244.692 234.854 245.113 234.344 245.652 233.986C246.191 233.628 246.824 233.437 247.471 233.439C248.337 233.442 249.166 233.788 249.777 234.401C250.388 235.014 250.731 235.844 250.731 236.709Z" fill="white"/>
<path d="M249.42 236.739C249.42 237.137 249.301 237.525 249.079 237.855C248.857 238.185 248.542 238.441 248.173 238.591C247.805 238.741 247.4 238.777 247.011 238.696C246.622 238.615 246.266 238.419 245.988 238.134C245.71 237.85 245.524 237.489 245.452 237.098C245.381 236.706 245.428 236.303 245.587 235.938C245.746 235.574 246.01 235.265 246.345 235.051C246.681 234.838 247.072 234.729 247.47 234.739C247.73 234.739 247.988 234.791 248.228 234.892C248.468 234.993 248.685 235.141 248.867 235.328C249.049 235.514 249.191 235.735 249.286 235.977C249.381 236.22 249.427 236.479 249.42 236.739Z" fill="#0C4767"/>
<path d="M247.971 223.061H246.961V234.781H247.971V223.061Z" fill="white"/>
<path opacity="0.3" d="M261.871 246.01H234.611V273.27H261.871V246.01Z" fill="black"/>
<path d="M250.13 261.45C250.13 261.768 250.036 262.08 249.859 262.344C249.682 262.609 249.43 262.815 249.136 262.937C248.842 263.059 248.518 263.091 248.206 263.029C247.894 262.967 247.607 262.813 247.382 262.588C247.157 262.363 247.003 262.076 246.941 261.764C246.879 261.452 246.911 261.128 247.033 260.834C247.155 260.54 247.361 260.288 247.626 260.111C247.89 259.934 248.202 259.84 248.52 259.84C248.947 259.84 249.357 260.009 249.659 260.311C249.961 260.613 250.13 261.023 250.13 261.45Z" fill="#263238"/>
<path d="M248.522 259.84C248.362 255.95 257.732 247.84 251.522 247.84C245.312 247.84 241.192 252.24 241.432 254.84C241.672 257.44 248.522 259.84 248.522 259.84Z" fill="#263238"/>
<path d="M248.54 263.181C244.8 264.251 234.73 257.031 236.19 263.111C237.65 269.191 242.89 272.111 245.33 271.291C247.77 270.471 248.54 263.181 248.54 263.181Z" fill="#263238"/>
<path d="M250.262 260.591C253.442 262.841 254.132 275.211 257.942 270.261C261.752 265.311 260.772 259.391 258.592 258.011C256.412 256.631 250.262 260.591 250.262 260.591Z" fill="#263238"/>
<path d="M253.701 158.569C254.433 157.78 255.313 157.143 256.291 156.694C257.269 156.246 258.326 155.994 259.402 155.954C260.477 155.914 261.55 156.087 262.559 156.462C263.567 156.836 264.492 157.406 265.281 158.139L265.551 158.409C265.868 158.702 266.286 158.862 266.718 158.853C267.149 158.845 267.561 158.67 267.866 158.365C268.172 158.059 268.347 157.648 268.355 157.216C268.364 156.784 268.204 156.366 267.911 156.049C266.843 154.97 265.574 154.113 264.175 153.525C262.776 152.937 261.275 152.631 259.757 152.623C258.24 152.616 256.736 152.907 255.331 153.482C253.926 154.056 252.649 154.901 251.571 155.969L251.351 156.189C249.871 157.729 252.211 160.099 253.711 158.549L253.701 158.569Z" fill="#0C4767"/>
<path d="M243.65 144.8C247.996 140.823 253.641 138.566 259.53 138.45C265.522 138.382 271.315 140.599 275.73 144.65C277.29 146.11 279.65 143.78 278.09 142.29C273.048 137.635 266.423 135.075 259.56 135.13C252.64 135.13 246.49 137.96 241.32 142.44C239.71 143.85 242.05 146.21 243.68 144.8H243.65Z" fill="#0C4767"/>
<path d="M247.611 152.43C249.039 150.837 250.767 149.54 252.696 148.615C254.625 147.69 256.718 147.155 258.854 147.04C260.991 146.925 263.129 147.232 265.146 147.944C267.164 148.656 269.021 149.759 270.611 151.19C270.931 151.47 271.241 151.78 271.541 152.09C273.041 153.63 275.401 151.28 273.901 149.73C272.123 147.87 269.997 146.379 267.642 145.342C265.288 144.304 262.752 143.74 260.18 143.683C257.608 143.625 255.049 144.075 252.651 145.006C250.252 145.937 248.061 147.332 246.201 149.11C245.891 149.42 245.581 149.73 245.291 150.05C243.841 151.62 246.171 153.99 247.651 152.41L247.611 152.43Z" fill="#0C4767"/>
<path d="M166.351 410.43L175.341 407.75L172.621 386.51L161.561 390.44L166.351 410.43Z" fill="#FF8B7B"/>
<path opacity="0.2" d="M160.32 384.52L171.99 380.18L173.74 395.46L163.38 398.36L160.32 384.52Z" fill="black"/>
<path d="M176.11 406.23L165.86 409C165.674 409.058 165.517 409.184 165.418 409.352C165.32 409.521 165.289 409.72 165.33 409.91L166.88 419.67C166.912 419.9 166.989 420.122 167.107 420.321C167.225 420.521 167.382 420.695 167.568 420.834C167.754 420.973 167.966 421.073 168.191 421.129C168.417 421.185 168.651 421.196 168.88 421.16C172.42 420.16 174.09 419.42 178.59 418.16C181.36 417.4 187.69 415.6 191.59 414.89C195.49 414.18 194.68 409.64 192.97 409.52C185.3 409.05 180.9 408.13 177.81 406.42C177.289 406.14 176.68 406.072 176.11 406.23Z" fill="#263238"/>
<path d="M182.509 406.8C182.617 406.611 182.674 406.397 182.674 406.18C182.674 405.963 182.617 405.749 182.509 405.56C182.455 405.43 182.367 405.317 182.255 405.233C182.142 405.149 182.009 405.096 181.869 405.08C180.659 404.92 178.479 407.29 178.239 407.57C178.217 407.604 178.205 407.644 178.205 407.685C178.205 407.726 178.217 407.766 178.239 407.8C178.255 407.838 178.281 407.87 178.315 407.893C178.349 407.916 178.388 407.929 178.429 407.93C179.256 407.932 180.08 407.848 180.889 407.68C181.518 407.591 182.093 407.278 182.509 406.8ZM181.759 405.51C181.827 405.523 181.889 405.552 181.942 405.596C181.994 405.64 182.035 405.696 182.059 405.76C182.137 405.875 182.183 406.009 182.194 406.147C182.205 406.286 182.179 406.424 182.119 406.55C181.789 407.08 180.599 407.37 178.879 407.49C179.789 406.56 181.119 405.42 181.759 405.51Z" fill="#0C4767"/>
<path d="M178.53 407.87C179.3 407.11 180.21 404.87 179.76 403.93C179.682 403.76 179.548 403.621 179.381 403.538C179.213 403.454 179.023 403.43 178.84 403.47C178.668 403.478 178.502 403.53 178.357 403.621C178.211 403.712 178.092 403.839 178.01 403.99C177.29 405.09 178.15 407.67 178.16 407.79C178.191 407.859 178.249 407.913 178.32 407.94H178.42C178.462 407.927 178.5 407.903 178.53 407.87ZM178.89 403.87C179.21 403.87 179.36 403.96 179.37 404.09C179.479 405.216 179.158 406.342 178.47 407.24C178.121 406.275 178.086 405.226 178.37 404.24C178.413 404.163 178.472 404.095 178.542 404.042C178.613 403.989 178.694 403.95 178.78 403.93L178.89 403.87Z" fill="#0C4767"/>
<path d="M120.8 295.299C120.8 295.299 174.05 299.789 172.74 322.919C171.67 341.849 168.86 336.699 174.37 392.979L160.98 393.719C160.98 393.719 147.36 347.719 149.19 329.399C134.19 329.399 99.8304 330.709 94.8304 317.169C92.3576 310.293 91.1548 303.025 91.2804 295.719L120.8 295.299Z" fill="#263238"/>
<path d="M158.849 396.31L176.349 393.31L176.069 385.57L157.949 389.6L158.849 396.31Z" fill="#0C4767"/>
<path d="M201.081 413.209L209.551 409.189L203.621 388.619L193.291 394.189L201.081 413.209Z" fill="#FF8B7B"/>
<path opacity="0.2" d="M191.16 388.529L202.03 382.459L206.09 397.289L196.3 401.739L191.16 388.529Z" fill="black"/>
<path d="M210.08 407.568L200.38 411.878C200.201 411.965 200.062 412.117 199.99 412.302C199.917 412.487 199.918 412.693 199.99 412.878L202.99 422.288C203.056 422.513 203.167 422.721 203.315 422.902C203.464 423.083 203.647 423.232 203.854 423.34C204.061 423.448 204.288 423.514 204.521 423.532C204.754 423.551 204.989 423.522 205.21 423.448C208.56 421.878 210.09 420.928 214.35 419.038C216.98 417.868 222.96 415.118 226.69 413.828C230.42 412.538 228.94 408.168 227.24 408.308C219.59 409.018 215.09 408.778 211.79 407.558C211.239 407.347 210.629 407.35 210.08 407.568Z" fill="#263238"/>
<path d="M216.49 407.159C216.564 406.955 216.584 406.735 216.547 406.521C216.51 406.307 216.418 406.106 216.28 405.939C216.211 405.817 216.108 405.718 215.984 405.652C215.86 405.587 215.72 405.558 215.58 405.569C214.35 405.569 212.58 408.269 212.37 408.569C212.349 408.603 212.338 408.643 212.338 408.684C212.338 408.724 212.349 408.764 212.37 408.799C212.392 408.833 212.424 408.861 212.461 408.877C212.499 408.893 212.54 408.897 212.58 408.889C213.4 408.767 214.204 408.559 214.98 408.269C215.603 408.097 216.14 407.702 216.49 407.159ZM215.55 405.999C215.62 406.002 215.688 406.023 215.748 406.059C215.807 406.096 215.856 406.148 215.89 406.209C215.985 406.31 216.051 406.435 216.081 406.57C216.111 406.706 216.104 406.847 216.06 406.979C215.83 407.549 214.69 407.979 213.01 408.389C213.76 407.339 214.91 405.999 215.55 405.999Z" fill="#0C4767"/>
<path d="M212.72 408.83C213.37 407.96 213.93 405.61 213.34 404.74C213.232 404.584 213.075 404.469 212.893 404.413C212.712 404.357 212.517 404.363 212.34 404.43C212.175 404.471 212.022 404.551 211.893 404.662C211.765 404.773 211.664 404.913 211.6 405.07C211.06 406.27 212.31 408.69 212.33 408.8C212.349 408.833 212.375 408.86 212.406 408.881C212.438 408.902 212.473 408.915 212.51 408.92H212.61C212.655 408.903 212.694 408.871 212.72 408.83ZM212.47 404.83C212.78 404.75 212.95 404.83 212.97 404.97C213.257 406.065 213.114 407.228 212.57 408.22C212.066 407.306 211.87 406.255 212.01 405.22C212.039 405.137 212.086 405.061 212.148 404.999C212.211 404.936 212.287 404.889 212.37 404.86L212.47 404.83Z" fill="#0C4767"/>
<path d="M136.65 295.299C137 295.299 196.34 301.409 196.41 321.539C196.54 354.819 206.05 392.979 206.05 392.979L194.32 398.789C194.32 398.789 173.9 357.419 174.21 331.479C157.88 326.789 115.65 334.659 110.66 321.129C106.57 310.069 108.78 295.299 108.78 295.299H136.65Z" fill="#263238"/>
<path d="M192.44 400.469L208.16 393.399L206.9 386.959L190.32 392.689L192.44 400.469Z" fill="#0C4767"/>
<path d="M110.24 224.27C108.51 227.54 107.07 230.7 105.61 233.99C104.15 237.28 102.86 240.57 101.61 243.99C100.36 247.41 99.3 250.85 98.38 254.47C97.3911 258.221 96.7979 262.065 96.61 265.94C96.5074 268.213 96.7331 270.49 97.28 272.7C97.6191 274.058 98.1512 275.362 98.86 276.57C99.2687 277.255 99.7443 277.898 100.28 278.49L100.71 278.96C100.96 279.18 101.22 279.43 101.48 279.62C101.91 279.951 102.373 280.239 102.86 280.48C103.578 280.842 104.332 281.127 105.11 281.33C105.725 281.492 106.349 281.616 106.98 281.7C108.052 281.823 109.131 281.876 110.21 281.86C112.129 281.866 114.046 281.753 115.95 281.52C123.057 280.593 130.054 278.965 136.84 276.66L135.6 270.74C128.82 271.2 121.9 271.74 115.41 271.68C113.79 271.6 112.22 271.6 110.76 271.45C110.11 271.381 109.465 271.267 108.83 271.11C108.31 270.98 107.83 270.77 108.02 270.79C108.124 270.829 108.221 270.883 108.31 270.95C108.412 271.019 108.506 271.099 108.59 271.19C108.557 271.129 108.531 271.065 108.51 271C108.377 270.679 108.286 270.343 108.24 270C108.059 268.825 108.022 267.633 108.13 266.45C108.438 263.418 109.041 260.424 109.93 257.51C110.82 254.36 111.93 251.31 113.08 248.21C114.23 245.11 115.52 242.02 116.89 238.94C118.26 235.86 119.69 232.78 121.09 229.88L110.24 224.27Z" fill="#FF8B7B"/>
<path d="M132.609 272.139L139.839 268.539L142.989 276.339C142.989 276.339 134.589 279.339 132.989 277.119L132.609 272.139Z" fill="#FF8B7B"/>
<path d="M145.46 270.27L148.42 275.53L142.99 276.28L139.84 268.49L145.46 270.27Z" fill="#FF8B7B"/>
<path d="M131.74 237.449C133.09 240.839 131.61 236.999 133.1 240.279C134.59 243.559 136.1 246.789 137.64 250.019C140.805 256.593 144.351 262.977 148.26 269.139C149.33 270.709 150.39 272.269 151.58 273.829C152.17 274.619 152.83 275.389 153.53 276.189C153.91 276.589 154.22 276.969 154.67 277.379L155.31 277.999L155.67 278.339C156.681 279.2 157.869 279.828 159.15 280.179C159.826 280.374 160.514 280.521 161.21 280.619C162.345 280.755 163.488 280.802 164.63 280.759C166.605 280.697 168.573 280.5 170.52 280.169C177.704 278.881 184.74 276.87 191.52 274.169L191.57 266.689C184.7 267.519 177.68 268.399 171.08 268.689C169.52 268.749 167.958 268.729 166.4 268.629C165.773 268.578 165.151 268.478 164.54 268.329C164.343 268.28 164.152 268.209 163.97 268.119C163.91 268.119 163.97 268.039 164.26 268.219C164.364 268.277 164.459 268.352 164.54 268.439L164.44 268.309L164.14 267.979C163.95 267.789 163.71 267.469 163.49 267.209C163.06 266.659 162.61 266.069 162.16 265.419C161.28 264.149 160.42 262.749 159.57 261.329C157.87 258.479 156.29 255.459 154.74 252.399C153.19 249.339 151.74 246.219 150.24 243.069C147.32 236.809 147.35 237.459 144.64 231.139L131.74 237.449Z" fill="#FF8B7B"/>
<path d="M187.16 267.779L196.79 265.779L200.57 276.229C200.57 276.229 189.46 277.339 187.41 274.319L187.16 267.779Z" fill="#FF8B7B"/>
<path d="M204.111 268.41L207.771 275.48L200.571 276.22L196.791 265.77L204.111 268.41Z" fill="#FF8B7B"/>
<path d="M136.53 194.91C137.122 197.015 137.99 199.032 139.11 200.91C137.85 201.84 135.93 201.09 135.93 201.09L136.53 194.91Z" fill="#A02724"/>
<path d="M137.19 200.72C136.948 200.799 136.695 200.843 136.44 200.85C134.57 200.85 133 198.92 132.95 196.46C132.9 194 134.38 191.97 136.25 191.92C136.745 191.924 137.23 192.048 137.666 192.282C138.101 192.515 138.473 192.851 138.75 193.26C139.398 194.145 139.748 195.213 139.75 196.31C139.79 198.38 138.72 200.23 137.19 200.72ZM135.65 192.53C134.35 192.94 133.41 194.53 133.45 196.45C133.5 198.63 134.84 200.38 136.45 200.34C136.658 200.342 136.864 200.308 137.06 200.24C138.38 199.82 139.3 198.17 139.26 196.32C139.258 195.33 138.947 194.365 138.37 193.56C138.14 193.215 137.829 192.932 137.465 192.733C137.101 192.535 136.695 192.427 136.28 192.42C136.066 192.425 135.854 192.462 135.65 192.53Z" fill="#263238"/>
<path d="M112.191 201.289L117.431 206.759L124.581 214.209C123.994 215.075 123.57 216.041 123.331 217.059C122.691 219.289 122.151 220.929 126.991 223.059C127.509 223.27 127.955 223.625 128.276 224.083C128.597 224.54 128.779 225.081 128.801 225.639C128.801 227.019 127.721 228.519 122.921 228.639C118.294 228.618 113.795 227.119 110.081 224.359C108.251 223.069 108.431 221.879 109.571 219.999C113.001 214.669 112.861 207.199 112.191 201.289Z" fill="#FF8B7B"/>
<path d="M138.23 194.551C138.29 195.281 138.02 195.901 137.64 195.931C137.26 195.961 136.9 195.391 136.85 194.661C136.8 193.931 137.05 193.301 137.43 193.271C137.81 193.241 138.17 193.811 138.23 194.551Z" fill="#263238"/>
<path d="M136.591 204.521C136.053 206.495 135.068 208.32 133.712 209.853C132.356 211.385 130.666 212.586 128.771 213.361C127.499 213.89 126.147 214.201 124.771 214.281C123.093 214.368 121.416 214.083 119.86 213.447C118.304 212.811 116.908 211.839 115.771 210.601C111.221 205.771 111.521 200.331 111.221 191.061C111.153 189.18 111.495 187.307 112.221 185.571C113.541 182.437 116.043 179.951 119.185 178.652C122.327 177.353 125.854 177.345 129.001 178.631C138.001 182.431 138.821 196.211 136.591 204.521Z" fill="#FF8B7B"/>
<path opacity="0.2" d="M128.771 213.36C127.499 213.89 126.147 214.201 124.771 214.28L124.611 214.22L125.491 212.49C125.491 212.49 126.001 214 128.771 213.36Z" fill="black"/>
<path d="M126.364 191.401L126.23 191.883L140.037 195.72L140.171 195.238L126.364 191.401Z" fill="#263238"/>
<path d="M129.001 196.88C127.381 199.62 125.401 202.3 125.001 205.46C124.811 206.78 114.751 208.75 112.341 206.23C110.009 203.606 108.339 200.461 107.471 197.06C106.094 192.96 105.862 188.562 106.801 184.34C107.352 181.892 108.708 179.698 110.651 178.11C111.628 177.342 112.796 176.855 114.03 176.701C115.263 176.548 116.515 176.734 117.651 177.24C119.964 175.723 122.658 174.888 125.424 174.831C128.189 174.774 130.915 175.497 133.289 176.917C135.663 178.338 137.59 180.398 138.847 182.862C140.105 185.326 140.643 188.094 140.401 190.85C140.405 191.171 140.295 191.483 140.091 191.73C139.923 191.841 139.734 191.915 139.536 191.95C139.339 191.984 139.136 191.977 138.941 191.93L133.221 191.24C132.501 191.16 131.621 190.92 131.491 190.24C131.411 189.79 130.931 187.46 130.911 187.12L129.001 196.88Z" fill="#263238"/>
<path d="M122.731 195.999C123.156 198.044 124.321 199.86 126.001 201.099C128.171 202.669 130.351 200.439 130.341 197.809C130.341 195.439 128.761 192.169 126.341 191.649C123.921 191.129 122.221 193.469 122.731 195.999Z" fill="#FF8B7B"/>
<path d="M114.779 173.199C115.426 173.175 116.064 173.356 116.603 173.715C117.141 174.074 117.553 174.593 117.779 175.199C118.059 175.909 118.329 177.639 117.529 178.009C116.784 176.314 115.862 174.702 114.779 173.199Z" fill="#263238"/>
<path d="M94.6004 224.309C95.4004 222.189 99.1104 220.059 101.4 220.059H102.91C105.952 220.089 108.99 220.286 112.01 220.649C118.062 221.309 124.072 222.311 130.01 223.649C132.75 224.379 135.4 225.289 137.5 226.079C140.18 227.139 141.75 227.849 141.75 227.849C141.75 227.849 138.82 247.379 137.3 266.769C136.46 277.559 136.8 288.279 136.54 295.649H91.2804C89.7104 286.799 89.9604 279.069 89.8304 263.079C89.7604 253.499 91.3204 233.049 94.6004 224.309Z" fill="#0C4767"/>
<path opacity="0.2" d="M138.33 255.999C137.99 260.069 137.64 264.339 137.27 268.609C131.96 260.849 129.01 239.609 129.01 239.609L138.33 255.999Z" fill="black"/>
<path d="M144.36 229.309C150.85 232.959 157.21 251.659 157.21 251.659L142.35 262.869C136.68 257.509 128.35 244.199 127.48 238.869C126 230.709 134 223.489 144.36 229.309Z" fill="#0C4767"/>
<path d="M157.18 428.64C157.184 429.553 157.458 430.444 157.968 431.201C158.478 431.958 159.201 432.547 160.046 432.894C160.89 433.241 161.818 433.329 162.713 433.149C163.608 432.968 164.429 432.527 165.074 431.88C165.718 431.233 166.156 430.41 166.332 429.514C166.509 428.618 166.416 427.69 166.066 426.847C165.716 426.004 165.124 425.284 164.364 424.777C163.605 424.27 162.713 424 161.8 424C160.574 424 159.399 424.487 158.533 425.353C157.666 426.22 157.18 427.395 157.18 428.62V428.64Z" fill="#263238"/>
<path d="M88.2595 428.64C88.2555 429.553 87.9812 430.444 87.4712 431.201C86.9611 431.958 86.2382 432.547 85.3937 432.894C84.5491 433.241 83.6208 433.329 82.726 433.149C81.8311 432.968 81.0098 432.527 80.3657 431.88C79.7215 431.233 79.2835 430.41 79.1069 429.514C78.9302 428.618 79.0229 427.69 79.3731 426.847C79.7234 426.004 80.3155 425.284 81.0748 424.777C81.8342 424.27 82.7266 424 83.6395 424C84.8648 424 86.0399 424.487 86.9063 425.353C87.7727 426.22 88.2595 427.395 88.2595 428.62V428.64Z" fill="#263238"/>
<path d="M127.22 427.159C127.22 428.073 126.95 428.966 126.442 429.726C125.934 430.486 125.213 431.078 124.368 431.427C123.524 431.777 122.595 431.869 121.699 431.69C120.803 431.512 119.98 431.072 119.334 430.426C118.688 429.78 118.248 428.957 118.069 428.06C117.891 427.164 117.982 426.235 118.332 425.391C118.682 424.547 119.274 423.825 120.034 423.318C120.793 422.81 121.687 422.539 122.6 422.539C123.826 422.539 125.001 423.026 125.867 423.892C126.734 424.759 127.22 425.934 127.22 427.159Z" fill="#263238"/>
<path d="M124 421.46V412.52H137.23C139.827 412.527 142.418 412.771 144.97 413.25L169.65 418C170.206 418.104 170.702 418.414 171.039 418.869C171.375 419.324 171.527 419.89 171.464 420.452C171.4 421.014 171.126 421.532 170.697 421.9C170.268 422.269 169.715 422.462 169.15 422.44L124 421.46Z" fill="#263238"/>
<path d="M123.999 421.46V412.52H110.789C108.192 412.522 105.601 412.767 103.049 413.25L75.3493 417.67C74.7669 417.786 74.254 418.127 73.9224 418.62C73.5909 419.113 73.4675 419.716 73.5793 420.3C73.6792 420.823 73.963 421.293 74.3794 421.625C74.7957 421.957 75.3171 422.129 75.8493 422.11L123.999 421.46Z" fill="#263238"/>
<path d="M132.24 368.07H115.85V415.24H132.24V368.07Z" fill="#263238"/>
<path d="M129.869 338.18H118.189V368.3H129.869V338.18Z" fill="#263238"/>
<path opacity="0.5" d="M129.879 343.76L118.189 346.71V338.18H129.879V343.76Z" fill="black"/>
<path d="M167.741 295.139H161.801V320.469H167.741V295.139Z" fill="#0C4767"/>
<path opacity="0.7" d="M167.741 295.139H161.801V320.469H167.741V295.139Z" fill="white"/>
<path d="M132 338.179V228.059C131.999 225.996 131.558 223.958 130.706 222.08C129.854 220.202 128.611 218.527 127.06 217.169L119.21 210.299C116.576 207.99 113.192 206.717 109.69 206.719H81.3695L67.5195 221.459V338.179H132Z" fill="#0C4767"/>
<path d="M174.25 316.869H109.57V338.179H184.79C186.14 338.179 187.466 337.821 188.634 337.143C189.801 336.464 190.768 335.489 191.436 334.316C192.104 333.143 192.45 331.814 192.439 330.464C192.427 329.114 192.059 327.791 191.37 326.629C189.61 323.655 187.106 321.191 184.104 319.48C181.102 317.768 177.706 316.869 174.25 316.869Z" fill="#0C4767"/>
<path opacity="0.7" d="M67.5098 221.469V338.179H184.79C186.139 338.179 187.465 337.823 188.632 337.145C189.799 336.468 190.767 335.494 191.436 334.322C192.105 333.15 192.452 331.822 192.442 330.473C192.433 329.123 192.066 327.801 191.38 326.639C189.625 323.667 187.126 321.204 184.129 319.493C181.132 317.781 177.741 316.88 174.29 316.879H141.71C140.436 316.884 139.173 316.637 137.995 316.153C136.816 315.669 135.745 314.956 134.843 314.057C133.94 313.157 133.225 312.088 132.737 310.911C132.249 309.734 131.998 308.473 132 307.199V228.049C131.999 225.989 131.558 223.954 130.706 222.079C129.854 220.204 128.611 218.533 127.06 217.179L119.21 210.299C116.571 207.992 113.184 206.724 109.68 206.729H81.3698L67.5098 221.469Z" fill="white"/>
<path d="M122.6 338.179V228.059C122.6 225.996 122.159 223.958 121.307 222.08C120.455 220.202 119.212 218.527 117.66 217.169L109.82 210.299C107.181 207.991 103.795 206.719 100.29 206.719H78.1901C76.2149 206.719 74.2607 207.123 72.448 207.908C70.6352 208.692 69.0024 209.839 67.6501 211.279L62.0001 217.279C59.4809 219.959 58.0789 223.5 58.0801 227.179V327.179C58.0801 330.096 59.239 332.894 61.3019 334.957C63.3648 337.02 66.1627 338.179 69.0801 338.179H122.6Z" fill="#0C4767"/>
<path opacity="0.5" d="M122.6 338.179V228.059C122.6 225.996 122.159 223.958 121.307 222.08C120.455 220.202 119.212 218.527 117.66 217.169L109.82 210.299C107.181 207.991 103.795 206.719 100.29 206.719H78.1901C76.2149 206.719 74.2607 207.123 72.448 207.908C70.6352 208.692 69.0024 209.839 67.6501 211.279L62.0001 217.279C59.4809 219.959 58.0789 223.5 58.0801 227.179V327.179C58.0801 330.096 59.239 332.894 61.3019 334.957C63.3648 337.02 66.1627 338.179 69.0801 338.179H122.6Z" fill="white"/>
<path d="M144.61 302.869C157.677 298.31 171.903 298.31 184.97 302.869C186.28 303.365 187.726 303.363 189.035 302.864C190.344 302.364 191.424 301.402 192.07 300.159C193.28 297.599 191.66 294.289 188.37 293.159C173.109 287.83 156.491 287.83 141.23 293.159C137.94 294.309 136.31 297.629 137.52 300.159C138.169 301.397 139.248 302.355 140.553 302.853C141.858 303.352 143.301 303.358 144.61 302.869Z" fill="#0C4767"/>
<path opacity="0.7" d="M144.61 302.869C157.677 298.31 171.903 298.31 184.97 302.869C186.28 303.365 187.726 303.363 189.035 302.864C190.344 302.364 191.424 301.402 192.07 300.159C193.28 297.599 191.66 294.289 188.37 293.159C173.109 287.83 156.491 287.83 141.23 293.159C137.94 294.309 136.31 297.629 137.52 300.159C138.169 301.397 139.248 302.355 140.553 302.853C141.858 303.352 143.301 303.358 144.61 302.869Z" fill="white"/>
<path d="M443.289 144.13V143.83C443.299 143.93 443.299 144.03 443.289 144.13Z" fill="#0C4767"/>
<path d="M313.779 103.001C303.862 111.364 296.389 122.251 292.149 134.511L287.049 134.221C289.464 120.337 295.308 107.275 304.049 96.2207L313.779 103.001Z" fill="#0C4767"/>
<path opacity="0.6" d="M313.779 103.001C303.862 111.364 296.389 122.251 292.149 134.511L287.049 134.221C289.464 120.337 295.308 107.275 304.049 96.2207L313.779 103.001Z" fill="white"/>
<path d="M344 87.6803C332.853 90.3133 322.493 95.5651 313.78 103L304 96.2703C312.705 85.1585 323.918 76.2659 336.72 70.3203L344 87.6803Z" fill="#0C4767"/>
<path opacity="0.5" d="M344 87.6803C332.853 90.3133 322.493 95.5651 313.78 103L304 96.2703C312.705 85.1585 323.918 76.2659 336.72 70.3203L344 87.6803Z" fill="white"/>
<path d="M376.479 62.6408L372.899 87.3908C369.369 86.6222 365.779 86.1572 362.169 86.0008C356.064 85.7282 349.95 86.2934 343.999 87.6808L336.709 70.3208C348.759 64.685 361.988 62.0304 375.279 62.5808L376.479 62.6408Z" fill="#0C4767"/>
<path opacity="0.4" d="M376.479 62.6408L372.899 87.3908C369.369 86.6222 365.779 86.1572 362.169 86.0008C356.064 85.7282 349.95 86.2934 343.999 87.6808L336.709 70.3208C348.759 64.685 361.988 62.0304 375.279 62.5808L376.479 62.6408Z" fill="white"/>
<path d="M413.238 74.8706L395.998 98.0006C389.169 92.8135 381.283 89.1914 372.898 87.3906L376.478 62.6406C389.61 63.3321 402.31 67.5576 413.238 74.8706Z" fill="#0C4767"/>
<path opacity="0.3" d="M413.238 74.8706L395.998 98.0006C389.169 92.8135 381.283 89.1914 372.898 87.3906L376.478 62.6406C389.61 63.3321 402.31 67.5576 413.238 74.8706Z" fill="white"/>
<path d="M437.75 104.07L411.8 116.5C407.926 109.268 402.537 102.958 396 97.9999L413.28 74.9199C423.991 82.1693 432.466 92.2648 437.75 104.07Z" fill="#0C4767"/>
<path opacity="0.2" d="M437.75 104.07L411.8 116.5C407.926 109.268 402.537 102.958 396 97.9999L413.28 74.9199C423.991 82.1693 432.466 92.2648 437.75 104.07Z" fill="white"/>
<path d="M443.419 143.11L418.649 141.71C418.278 132.901 415.937 124.286 411.799 116.5L437.749 104.07C443.154 116.326 445.114 129.824 443.419 143.11Z" fill="#0C4767"/>
<path opacity="0.1" d="M443.419 143.11L418.649 141.71C418.278 132.901 415.937 124.286 411.799 116.5L437.749 104.07C443.154 116.326 445.114 129.824 443.419 143.11Z" fill="white"/>
<path d="M443.34 143.83C443.35 143.93 443.35 144.03 443.34 144.13C442.34 151.13 439.07 162.55 435.6 169.13L415.75 163.7L417.7 156.11C417.9 155.11 418.06 154.11 418.2 153.11L418.28 152.5C418.731 148.909 418.872 145.285 418.7 141.67L443.47 143.07C443.47 143.21 443.47 143.35 443.42 143.49C443.406 143.606 443.38 143.72 443.34 143.83Z" fill="#0C4767"/>
<path d="M288.909 161.001L287.399 161.261C287.019 159.331 286.709 157.381 286.479 155.391C285.807 149.313 285.854 143.177 286.619 137.111V136.821C286.627 136.716 286.644 136.612 286.669 136.511C286.779 135.741 286.889 134.981 287.019 134.221L292.119 134.511C290.761 138.497 289.776 142.602 289.179 146.771C289.179 146.871 289.179 146.971 289.179 147.071C289.174 147.174 289.174 147.277 289.179 147.381C288.872 149.839 288.712 152.313 288.699 154.791C288.658 156.863 288.728 158.936 288.909 161.001Z" fill="#0C4767"/>
<path opacity="0.7" d="M288.909 161.001L287.399 161.261C287.019 159.331 286.709 157.381 286.479 155.391C285.807 149.313 285.854 143.177 286.619 137.111V136.821C286.627 136.716 286.644 136.612 286.669 136.511C286.779 135.741 286.889 134.981 287.019 134.221L292.119 134.511C290.761 138.497 289.776 142.602 289.179 146.771C289.179 146.871 289.179 146.971 289.179 147.071C289.174 147.174 289.174 147.277 289.179 147.381C288.872 149.839 288.712 152.313 288.699 154.791C288.658 156.863 288.728 158.936 288.909 161.001Z" fill="white"/>
<path d="M440.81 163.75L438.49 168.92L434.23 167.76L394.68 156.92L377.68 152.25C378.954 150.772 380.021 149.127 380.85 147.36C381.829 145.305 382.457 143.102 382.71 140.84L420.27 155.64L440.81 163.75Z" fill="#263238"/>
<path d="M382.679 140.84C382.192 145.058 380.45 149.033 377.679 152.25L362.379 148.06L367.839 135L382.679 140.84Z" fill="#263238"/>
<path d="M373.538 140.441C373.194 143.341 371.989 146.072 370.078 148.281C368.702 149.908 366.999 151.227 365.078 152.151C358.078 155.491 350.158 152.831 347.358 146.151C344.558 139.471 347.968 131.401 354.958 128.041C361.948 124.681 369.888 127.361 372.678 134.041C373.515 136.064 373.811 138.269 373.538 140.441Z" fill="#0C4767"/>
<path d="M409.17 128.14C409.064 128.137 408.962 128.098 408.882 128.029C408.802 127.959 408.748 127.865 408.73 127.76C407.773 123.431 406.02 119.318 403.56 115.63C403.526 115.578 403.503 115.52 403.492 115.46C403.481 115.399 403.482 115.337 403.495 115.276C403.508 115.216 403.533 115.159 403.568 115.108C403.603 115.057 403.648 115.014 403.7 114.98C403.806 114.912 403.935 114.889 404.058 114.915C404.182 114.941 404.29 115.015 404.36 115.12C406.881 118.909 408.675 123.135 409.65 127.58C409.673 127.702 409.647 127.829 409.578 127.932C409.509 128.035 409.401 128.106 409.28 128.13L409.17 128.14Z" fill="#0C4767"/>
<path d="M300.649 126.31C300.572 126.309 300.496 126.289 300.429 126.25C300.375 126.219 300.329 126.176 300.292 126.126C300.255 126.076 300.228 126.019 300.213 125.959C300.198 125.898 300.195 125.836 300.205 125.774C300.214 125.713 300.236 125.654 300.269 125.6C300.479 125.25 321.769 90.3005 356.379 90.2305C373.299 90.2305 389.159 97.1205 399.879 109.23C399.924 109.273 399.961 109.324 399.985 109.38C400.01 109.437 400.023 109.499 400.023 109.56C400.023 109.622 400.01 109.684 399.985 109.741C399.961 109.797 399.924 109.848 399.879 109.89C399.836 109.935 399.785 109.97 399.728 109.994C399.671 110.018 399.61 110.03 399.549 110.03C399.487 110.03 399.426 110.018 399.37 109.994C399.313 109.97 399.262 109.935 399.219 109.89C393.818 103.918 387.209 99.1616 379.83 95.9376C372.451 92.7136 364.471 91.0955 356.419 91.1905C322.339 91.2605 301.329 125.76 301.119 126.11C301.068 126.186 300.997 126.244 300.913 126.28C300.83 126.315 300.738 126.326 300.649 126.31Z" fill="#0C4767"/>
<path d="M433.79 172.662H433.69L427.92 171.002C427.801 170.967 427.7 170.886 427.64 170.777C427.581 170.669 427.566 170.541 427.6 170.422C427.616 170.362 427.644 170.306 427.682 170.256C427.72 170.207 427.767 170.166 427.821 170.136C427.875 170.105 427.935 170.085 427.996 170.078C428.058 170.07 428.12 170.075 428.18 170.092L433.94 171.702C434.049 171.734 434.143 171.806 434.204 171.902C434.264 171.999 434.287 172.115 434.269 172.227C434.251 172.34 434.192 172.442 434.104 172.515C434.016 172.587 433.904 172.625 433.79 172.622V172.662Z" fill="#0C4767"/>
<path d="M423.819 169.861H423.709L376.899 156.671C376.779 156.637 376.679 156.556 376.619 156.447C376.559 156.339 376.545 156.211 376.579 156.091C376.595 156.032 376.623 155.975 376.661 155.926C376.699 155.877 376.746 155.836 376.8 155.806C376.854 155.775 376.913 155.755 376.975 155.748C377.036 155.74 377.099 155.745 377.159 155.761L423.999 168.941C424.108 168.974 424.202 169.046 424.262 169.142C424.323 169.239 424.346 169.355 424.328 169.467C424.309 169.58 424.251 169.682 424.162 169.755C424.074 169.827 423.963 169.865 423.849 169.861H423.819Z" fill="#0C4767"/>
</svg>
